<svg t="1684377838964" class="icon" viewBox="0 0 1024 1024" version="1.1" xmlns="http://www.w3.org/2000/svg"
    p-id="19815" width="128" height="128">
    <path
        d="M449.491051 0h117.441056c27.79882 0 52.781922 0.819118 75.563643 2.457354l12.184382 1.023898 5.938606 0.511949 11.570043 1.177482c60.614739 6.911309 104.283972 20.529147 144.164784 40.392761l7.423257 3.788421 3.686032 1.945405a348.893111 348.893111 0 0 1 145.137486 145.137487l1.945405 3.686031 3.788422 7.423258c19.863614 39.880812 33.481452 83.550045 40.39276 144.164783l1.177483 11.570043 0.511948 5.938606 1.023898 12.184382c1.638236 22.781722 2.457354 47.764824 2.457354 75.563643v109.966604c0 27.79882-0.819118 52.781922-2.457354 75.563643l-1.023898 12.184382-0.511948 5.938606-1.177483 11.570043c-6.911309 60.614739-20.529147 104.283972-40.39276 144.164784l-3.788422 7.423257a348.893111 348.893111 0 0 1-147.082891 148.823518l-3.686032 1.945405-7.423257 3.788422c-39.880812 19.863614-83.550045 33.481452-144.164784 40.39276l-11.570043 1.177483-5.938606 0.511948-12.184382 1.023898c-22.781722 1.638236-47.764824 2.457354-75.563643 2.457354H456.965503c-27.79882 0-52.781922-0.819118-75.563643-2.457354l-12.184382-1.023898a722.154985 722.154985 0 0 1-5.938606-0.511948L351.708829 1018.778122c-60.614739-6.911309-104.283972-20.529147-144.164783-40.392761l-7.423258-3.788421a348.893111 348.893111 0 0 1-148.823518-147.082891l-1.945405-3.686032-3.788421-7.423257C25.69983 776.472753 12.081992 732.80352 5.119488 672.188781l-1.177482-11.570043a722.154985 722.154985 0 0 1-0.511949-5.938606l-1.023898-12.184382A1031.064894 1031.064894 0 0 1 0 574.406559V456.965503c0-27.79882 0.819118-52.781922 2.457354-75.563643l1.023898-12.184382 0.511949-5.938606L5.119488 351.708829C12.081992 291.094091 25.69983 247.424858 45.563444 207.544046l3.788421-7.423258 1.945405-3.686031a348.893111 348.893111 0 0 1 145.137487-145.137487l3.686031-1.945405 7.423258-3.788421C247.424858 25.69983 291.094091 12.081992 351.708829 5.119488l11.570043-1.177482 5.938606-0.511949 12.184382-1.023898C402.084592 1.023898 424.661534 0.153585 449.491051 0z"
        fill="#409eff" p-id="19816" data-spm-anchor-id="a313x.7781069.0.i70" class=""></path>
    <path
        d="M793.879012 301.281872v18.327767a17.662234 17.662234 0 0 1-28.771523 13.771423l-13.771423-11.109289a56.211979 56.211979 0 0 0-76.280372 5.119488 55.290471 55.290471 0 0 0 0 75.870813 56.211979 56.211979 0 0 0 76.280372 5.170683l13.771423-11.109289a17.662234 17.662234 0 0 1 28.771523 13.720228v18.378962c0 35.375662-28.669133 64.044796-64.09599 64.044795H616.89831A79.30087 79.30087 0 0 1 537.546245 414.217778v-97.782222c0-43.720428 35.529247-79.249675 79.30087-79.249675h112.935907c35.375662 0 64.09599 28.669133 64.09599 64.095991z"
        fill="#ffffff" opacity="1" p-id="19817" data-spm-anchor-id="a313x.7781069.0.i71" class="selected"></path>
    <path
        d="M309.985001 237.185881h97.782222c43.771623 0 79.249675 35.529247 79.249675 79.30087V414.166583c0 43.771623-35.478052 79.249675-79.30087 79.249675H309.985001a79.30087 79.30087 0 0 1-79.249675-79.249675v-97.782221c0-43.720428 35.478052-79.249675 79.249675-79.249675zM309.985001 544.047995h97.782222c43.771623 0 79.249675 35.478052 79.249675 79.30087v97.731027c0 43.771623-35.478052 79.249675-79.30087 79.249675H309.985001a79.30087 79.30087 0 0 1-79.249675-79.249675v-97.782222c0-43.771623 35.478052-79.249675 79.249675-79.249675zM616.847115 544.047995h97.782222c43.720428 0 79.249675 35.478052 79.249675 79.30087v97.731027c0 43.771623-35.529247 79.249675-79.30087 79.249675H616.89831a79.30087 79.30087 0 0 1-79.30087-79.249675v-97.782222c0-43.771623 35.529247-79.249675 79.30087-79.249675z"
        fill="#ffffff" p-id="19818" data-spm-anchor-id="a313x.7781069.0.i72" class="selected"></path>
</svg>
